%TF.GenerationSoftware,KiCad,Pcbnew,9.0.7*%
%TF.CreationDate,2026-01-16T10:51:50-07:00*%
%TF.ProjectId,keylink_revB,6b65796c-696e-46b5-9f72-6576422e6b69,rev?*%
%TF.SameCoordinates,Original*%
%TF.FileFunction,Copper,L2,Bot*%
%TF.FilePolarity,Positive*%
%FSLAX46Y46*%
G04 Gerber Fmt 4.6, Leading zero omitted, Abs format (unit mm)*
G04 Created by KiCad (PCBNEW 9.0.7) date 2026-01-16 10:51:50*
%MOMM*%
%LPD*%
G01*
G04 APERTURE LIST*
G04 Aperture macros list*
%AMRoundRect*
0 Rectangle with rounded corners*
0 $1 Rounding radius*
0 $2 $3 $4 $5 $6 $7 $8 $9 X,Y pos of 4 corners*
0 Add a 4 corners polygon primitive as box body*
4,1,4,$2,$3,$4,$5,$6,$7,$8,$9,$2,$3,0*
0 Add four circle primitives for the rounded corners*
1,1,$1+$1,$2,$3*
1,1,$1+$1,$4,$5*
1,1,$1+$1,$6,$7*
1,1,$1+$1,$8,$9*
0 Add four rect primitives between the rounded corners*
20,1,$1+$1,$2,$3,$4,$5,0*
20,1,$1+$1,$4,$5,$6,$7,0*
20,1,$1+$1,$6,$7,$8,$9,0*
20,1,$1+$1,$8,$9,$2,$3,0*%
G04 Aperture macros list end*
%TA.AperFunction,ComponentPad*%
%ADD10C,1.600000*%
%TD*%
%TA.AperFunction,ComponentPad*%
%ADD11O,3.500000X2.200000*%
%TD*%
%TA.AperFunction,ComponentPad*%
%ADD12R,2.500000X1.500000*%
%TD*%
%TA.AperFunction,ComponentPad*%
%ADD13O,2.500000X1.500000*%
%TD*%
%TA.AperFunction,ComponentPad*%
%ADD14O,1.200000X1.750000*%
%TD*%
%TA.AperFunction,ComponentPad*%
%ADD15RoundRect,0.250000X0.350000X0.625000X-0.350000X0.625000X-0.350000X-0.625000X0.350000X-0.625000X0*%
%TD*%
%TA.AperFunction,ComponentPad*%
%ADD16O,1.200000X2.200000*%
%TD*%
%TA.AperFunction,ComponentPad*%
%ADD17O,2.200000X1.200000*%
%TD*%
%TA.AperFunction,ViaPad*%
%ADD18C,0.600000*%
%TD*%
%TA.AperFunction,Conductor*%
%ADD19C,0.300000*%
%TD*%
G04 APERTURE END LIST*
D10*
%TO.P,R1,2*%
%TO.N,Net-(U1-VCC_3V3)*%
X100000000Y-36000000D03*
%TO.P,R1,1*%
%TO.N,Net-(U1-D5)*%
X107620000Y-36000000D03*
%TD*%
D11*
%TO.P,SW1,*%
%TO.N,*%
X90000000Y-32900000D03*
X90000000Y-41100000D03*
D12*
%TO.P,SW1,1,A*%
%TO.N,/VBAT*%
X90000000Y-35000000D03*
D13*
%TO.P,SW1,2,B*%
%TO.N,Net-(SW1-B)*%
X90000000Y-37000000D03*
%TO.P,SW1,3*%
%TO.N,N/C*%
X90000000Y-39000000D03*
%TD*%
D10*
%TO.P,R2,1*%
%TO.N,Net-(U1-D6)*%
X107620000Y-40000000D03*
%TO.P,R2,2*%
%TO.N,Net-(U1-VCC_3V3)*%
X100000000Y-40000000D03*
%TD*%
D14*
%TO.P,J1,2,Pin_2*%
%TO.N,Net-(J1-Pin_2)*%
X90500000Y-28500000D03*
D15*
%TO.P,J1,1,Pin_1*%
%TO.N,/VBAT*%
X92500000Y-28500000D03*
%TD*%
D10*
%TO.P,C1,2*%
%TO.N,GND*%
X96000000Y-38000000D03*
%TO.P,C1,1*%
%TO.N,Net-(U1-VCC_3V3)*%
X96000000Y-40500000D03*
%TD*%
D16*
%TO.P,J2,R*%
%TO.N,Net-(U1-D6)*%
X107000000Y-31000000D03*
D17*
%TO.P,J2,S*%
%TO.N,GND*%
X102000000Y-26000000D03*
D16*
%TO.P,J2,T*%
%TO.N,Net-(U1-D5)*%
X97000000Y-31000000D03*
%TD*%
D13*
%TO.P,U1,B-,Batt-*%
%TO.N,Net-(J1-Pin_2)*%
X102429000Y-54500000D03*
%TO.P,U1,B+,Batt+*%
%TO.N,Net-(SW1-B)*%
X102440000Y-52600000D03*
%TD*%
D18*
%TO.N,GND*%
X108750000Y-48500000D03*
X89000000Y-30750000D03*
X92500000Y-57250000D03*
X102500000Y-56500000D03*
X102000000Y-28750000D03*
%TO.N,Net-(U1-VCC_3V3)*%
X98750000Y-53000000D03*
%TO.N,Net-(J1-Pin_2)*%
X93750000Y-45750000D03*
%TD*%
D19*
%TO.N,Net-(U1-VCC_3V3)*%
X98750000Y-53000000D02*
X98750000Y-50250000D01*
X98750000Y-50250000D02*
X98500000Y-50000000D01*
X98500000Y-50000000D02*
X98500000Y-43000000D01*
%TO.N,Net-(U1-D6)*%
X107620000Y-40000000D02*
X105500000Y-37880000D01*
X105500000Y-37880000D02*
X105500000Y-32500000D01*
X105500000Y-32500000D02*
X107000000Y-31000000D01*
%TO.N,Net-(J1-Pin_2)*%
X93750000Y-45750000D02*
X93750000Y-31500000D01*
X93750000Y-31500000D02*
X93000000Y-30750000D01*
X93000000Y-30750000D02*
X90500000Y-30750000D01*
X90500000Y-30750000D02*
X90500000Y-28500000D01*
%TO.N,Net-(U1-VCC_3V3)*%
X98500000Y-41500000D02*
X98500000Y-37500000D01*
X98500000Y-41500000D02*
X100000000Y-40000000D01*
X98500000Y-43000000D02*
X98500000Y-41500000D01*
X98500000Y-37500000D02*
X100000000Y-36000000D01*
X98500000Y-43000000D02*
X96000000Y-40500000D01*
%TD*%
%TA.AperFunction,Conductor*%
%TO.N,GND*%
G36*
X99242539Y-22020185D02*
G01*
X99288294Y-22072989D01*
X99299500Y-22124500D01*
X99299500Y-22588695D01*
X99334103Y-22762658D01*
X99334106Y-22762667D01*
X99401983Y-22926540D01*
X99401990Y-22926553D01*
X99500535Y-23074034D01*
X99500538Y-23074038D01*
X99625961Y-23199461D01*
X99625965Y-23199464D01*
X99773446Y-23298009D01*
X99773459Y-23298016D01*
X99896363Y-23348923D01*
X99937334Y-23365894D01*
X99937336Y-23365894D01*
X99937341Y-23365896D01*
X100111304Y-23400499D01*
X100111307Y-23400500D01*
X100111309Y-23400500D01*
X103888693Y-23400500D01*
X103888694Y-23400499D01*
X103946682Y-23388964D01*
X104062658Y-23365896D01*
X104062661Y-23365894D01*
X104062666Y-23365894D01*
X104226547Y-23298013D01*
X104374035Y-23199464D01*
X104499464Y-23074035D01*
X104598013Y-22926547D01*
X104665894Y-22762666D01*
X104669151Y-22746295D01*
X104700499Y-22588695D01*
X104700500Y-22588693D01*
X104700500Y-22124500D01*
X104720185Y-22057461D01*
X104772989Y-22011706D01*
X104824500Y-22000500D01*
X108434108Y-22000500D01*
X109375500Y-22000500D01*
X109442539Y-22020185D01*
X109488294Y-22072989D01*
X109499500Y-22124500D01*
X109499500Y-61375500D01*
X109479815Y-61442539D01*
X109427011Y-61488294D01*
X109375500Y-61499500D01*
X87624500Y-61499500D01*
X87557461Y-61479815D01*
X87511706Y-61427011D01*
X87500500Y-61375500D01*
X87500500Y-54401577D01*
X100678500Y-54401577D01*
X100678500Y-54598422D01*
X100709290Y-54792826D01*
X100770117Y-54980029D01*
X100859476Y-55155405D01*
X100975172Y-55314646D01*
X101114354Y-55453828D01*
X101273595Y-55569524D01*
X101356455Y-55611743D01*
X101448970Y-55658882D01*
X101448972Y-55658882D01*
X101448975Y-55658884D01*
X101549317Y-55691487D01*
X101636173Y-55719709D01*
X101830578Y-55750500D01*
X101830583Y-55750500D01*
X103027422Y-55750500D01*
X103221826Y-55719709D01*
X103409025Y-55658884D01*
X103584405Y-55569524D01*
X103743646Y-55453828D01*
X103882828Y-55314646D01*
X103998524Y-55155405D01*
X104087884Y-54980025D01*
X104148709Y-54792826D01*
X104179500Y-54598422D01*
X104179500Y-54401577D01*
X104148709Y-54207173D01*
X104087882Y-54019970D01*
X103998523Y-53844594D01*
X103882828Y-53685354D01*
X103840655Y-53643181D01*
X103807170Y-53581858D01*
X103812154Y-53512166D01*
X103840655Y-53467819D01*
X103851656Y-53456818D01*
X103893828Y-53414646D01*
X104009524Y-53255405D01*
X104098884Y-53080025D01*
X104159709Y-52892826D01*
X104190500Y-52698422D01*
X104190500Y-52501577D01*
X104159709Y-52307173D01*
X104098882Y-52119970D01*
X104009523Y-51944594D01*
X103893828Y-51785354D01*
X103754646Y-51646172D01*
X103595405Y-51530476D01*
X103420029Y-51441117D01*
X103232826Y-51380290D01*
X103038422Y-51349500D01*
X103038417Y-51349500D01*
X101841583Y-51349500D01*
X101841578Y-51349500D01*
X101647173Y-51380290D01*
X101459970Y-51441117D01*
X101284594Y-51530476D01*
X101193741Y-51596485D01*
X101125354Y-51646172D01*
X101125352Y-51646174D01*
X101125351Y-51646174D01*
X100986174Y-51785351D01*
X100986174Y-51785352D01*
X100986172Y-51785354D01*
X100936485Y-51853741D01*
X100870476Y-51944594D01*
X100781117Y-52119970D01*
X100720290Y-52307173D01*
X100689500Y-52501577D01*
X100689500Y-52698422D01*
X100720290Y-52892826D01*
X100781117Y-53080029D01*
X100859309Y-53233489D01*
X100870476Y-53255405D01*
X100986172Y-53414646D01*
X100986174Y-53414648D01*
X101028344Y-53456818D01*
X101061829Y-53518141D01*
X101056845Y-53587833D01*
X101028346Y-53632179D01*
X100975172Y-53685354D01*
X100859476Y-53844594D01*
X100770117Y-54019970D01*
X100709290Y-54207173D01*
X100678500Y-54401577D01*
X87500500Y-54401577D01*
X87500500Y-32774038D01*
X87749500Y-32774038D01*
X87749500Y-33025961D01*
X87788910Y-33274785D01*
X87866760Y-33514383D01*
X87981132Y-33738848D01*
X88129201Y-33942649D01*
X88129205Y-33942654D01*
X88221061Y-34034510D01*
X88254546Y-34095833D01*
X88256669Y-34135446D01*
X88249501Y-34202116D01*
X88249500Y-34202135D01*
X88249500Y-35797870D01*
X88249501Y-35797876D01*
X88255908Y-35857483D01*
X88306202Y-35992328D01*
X88306206Y-35992335D01*
X88392451Y-36107543D01*
X88392452Y-36107544D01*
X88392454Y-36107546D01*
X88430777Y-36136234D01*
X88472647Y-36192167D01*
X88477631Y-36261859D01*
X88456784Y-36308385D01*
X88430475Y-36344595D01*
X88341117Y-36519970D01*
X88280290Y-36707173D01*
X88249500Y-36901577D01*
X88249500Y-37098422D01*
X88280290Y-37292826D01*
X88341117Y-37480029D01*
X88381453Y-37559192D01*
X88430476Y-37655405D01*
X88546172Y-37814646D01*
X88546174Y-37814648D01*
X88643845Y-37912319D01*
X88677330Y-37973642D01*
X88672346Y-38043334D01*
X88643845Y-38087681D01*
X88546174Y-38185351D01*
X88546174Y-38185352D01*
X88546172Y-38185354D01*
X88502396Y-38245606D01*
X88430476Y-38344594D01*
X88341117Y-38519970D01*
X88280290Y-38707173D01*
X88249500Y-38901577D01*
X88249500Y-39098422D01*
X88280290Y-39292826D01*
X88341117Y-39480029D01*
X88432352Y-39659087D01*
X88445248Y-39727757D01*
X88418971Y-39792497D01*
X88394753Y-39815699D01*
X88307350Y-39879202D01*
X88307341Y-39879209D01*
X88129205Y-40057345D01*
X88129201Y-40057350D01*
X87981132Y-40261151D01*
X87866760Y-40485616D01*
X87803078Y-40681610D01*
X87788910Y-40725215D01*
X87749500Y-40974038D01*
X87749500Y-41225962D01*
X87768705Y-41347219D01*
X87788910Y-41474785D01*
X87866760Y-41714383D01*
X87981132Y-41938848D01*
X88129201Y-42142649D01*
X88129205Y-42142654D01*
X88307345Y-42320794D01*
X88307350Y-42320798D01*
X88485117Y-42449952D01*
X88511155Y-42468870D01*
X88654184Y-42541747D01*
X88735616Y-42583239D01*
X88735618Y-42583239D01*
X88735621Y-42583241D01*
X88975215Y-42661090D01*
X89224038Y-42700500D01*
X89224039Y-42700500D01*
X90775961Y-42700500D01*
X90775962Y-42700500D01*
X91024785Y-42661090D01*
X91264379Y-42583241D01*
X91488845Y-42468870D01*
X91692656Y-42320793D01*
X91870793Y-42142656D01*
X92018870Y-41938845D01*
X92133241Y-41714379D01*
X92211090Y-41474785D01*
X92250500Y-41225962D01*
X92250500Y-40974038D01*
X92211090Y-40725215D01*
X92133241Y-40485621D01*
X92133239Y-40485618D01*
X92133239Y-40485616D01*
X92088417Y-40397648D01*
X92018870Y-40261155D01*
X91971144Y-40195465D01*
X91870798Y-40057350D01*
X91870794Y-40057345D01*
X91692658Y-39879209D01*
X91692656Y-39879207D01*
X91605245Y-39815699D01*
X91562581Y-39760370D01*
X91556602Y-39690756D01*
X91567647Y-39659087D01*
X91569520Y-39655409D01*
X91569524Y-39655405D01*
X91658884Y-39480025D01*
X91719709Y-39292826D01*
X91727378Y-39244407D01*
X91750500Y-39098422D01*
X91750500Y-38901577D01*
X91719709Y-38707173D01*
X91658882Y-38519970D01*
X91569523Y-38344594D01*
X91453828Y-38185354D01*
X91356155Y-38087681D01*
X91322670Y-38026358D01*
X91327654Y-37956666D01*
X91356155Y-37912319D01*
X91370792Y-37897682D01*
X91453828Y-37814646D01*
X91569524Y-37655405D01*
X91658884Y-37480025D01*
X91719709Y-37292826D01*
X91722953Y-37272345D01*
X91750500Y-37098422D01*
X91750500Y-36901577D01*
X91719709Y-36707173D01*
X91658882Y-36519970D01*
X91575314Y-36355959D01*
X91569524Y-36344595D01*
X91569522Y-36344592D01*
X91569521Y-36344590D01*
X91543217Y-36308386D01*
X91519736Y-36242580D01*
X91535561Y-36174526D01*
X91569219Y-36136237D01*
X91607546Y-36107546D01*
X91693796Y-35992331D01*
X91744091Y-35857483D01*
X91750500Y-35797873D01*
X91750499Y-34202128D01*
X91744091Y-34142517D01*
X91744089Y-34142514D01*
X91743330Y-34135445D01*
X91755736Y-34066685D01*
X91778938Y-34034510D01*
X91870793Y-33942656D01*
X92018870Y-33738845D01*
X92133241Y-33514379D01*
X92211090Y-33274785D01*
X92250500Y-33025962D01*
X92250500Y-32774038D01*
X92211090Y-32525215D01*
X92133241Y-32285621D01*
X92133239Y-32285618D01*
X92133239Y-32285616D01*
X92051656Y-32125502D01*
X92018870Y-32061155D01*
X91918092Y-31922445D01*
X91870798Y-31857350D01*
X91870794Y-31857345D01*
X91692654Y-31679205D01*
X91692649Y-31679201D01*
X91617797Y-31624818D01*
X91575131Y-31569488D01*
X91569152Y-31499875D01*
X91601757Y-31438080D01*
X91662596Y-31403723D01*
X91690682Y-31400500D01*
X92679192Y-31400500D01*
X92746231Y-31420185D01*
X92766873Y-31436819D01*
X93063181Y-31733126D01*
X93096666Y-31794449D01*
X93099500Y-31820807D01*
X93099500Y-45245064D01*
X93079815Y-45312103D01*
X93078603Y-45313954D01*
X93040608Y-45370817D01*
X93040602Y-45370828D01*
X92980264Y-45516498D01*
X92980261Y-45516510D01*
X92949500Y-45671153D01*
X92949500Y-45828846D01*
X92980261Y-45983489D01*
X92980264Y-45983501D01*
X93040602Y-46129172D01*
X93040609Y-46129185D01*
X93128210Y-46260288D01*
X93128213Y-46260292D01*
X93239707Y-46371786D01*
X93239711Y-46371789D01*
X93370814Y-46459390D01*
X93370827Y-46459397D01*
X93516498Y-46519735D01*
X93516503Y-46519737D01*
X93671153Y-46550499D01*
X93671156Y-46550500D01*
X93671158Y-46550500D01*
X93828844Y-46550500D01*
X93828845Y-46550499D01*
X93983497Y-46519737D01*
X94129179Y-46459394D01*
X94260289Y-46371789D01*
X94371789Y-46260289D01*
X94459394Y-46129179D01*
X94519737Y-45983497D01*
X94550500Y-45828842D01*
X94550500Y-45671158D01*
X94550500Y-45671155D01*
X94550499Y-45671153D01*
X94519738Y-45516510D01*
X94519737Y-45516503D01*
X94459394Y-45370821D01*
X94421396Y-45313953D01*
X94400520Y-45247276D01*
X94400500Y-45245064D01*
X94400500Y-40397648D01*
X94699500Y-40397648D01*
X94699500Y-40602351D01*
X94731522Y-40804534D01*
X94794781Y-40999223D01*
X94887715Y-41181613D01*
X95008028Y-41347213D01*
X95152786Y-41491971D01*
X95307749Y-41604556D01*
X95318390Y-41612287D01*
X95434607Y-41671503D01*
X95500776Y-41705218D01*
X95500778Y-41705218D01*
X95500781Y-41705220D01*
X95586667Y-41733126D01*
X95695465Y-41768477D01*
X95796557Y-41784488D01*
X95897648Y-41800500D01*
X95897649Y-41800500D01*
X96102351Y-41800500D01*
X96102352Y-41800500D01*
X96280112Y-41772345D01*
X96349405Y-41781299D01*
X96387191Y-41807137D01*
X97813181Y-43233127D01*
X97846666Y-43294450D01*
X97849500Y-43320808D01*
X97849500Y-50064070D01*
X97873738Y-50185914D01*
X97873740Y-50185938D01*
X97873742Y-50185938D01*
X97874499Y-50189744D01*
X97874500Y-50189748D01*
X97923533Y-50308124D01*
X97923534Y-50308126D01*
X97923535Y-50308127D01*
X97994723Y-50414669D01*
X98063182Y-50483128D01*
X98096666Y-50544449D01*
X98099500Y-50570808D01*
X98099500Y-52495064D01*
X98079815Y-52562103D01*
X98078603Y-52563954D01*
X98040608Y-52620817D01*
X98040602Y-52620828D01*
X97980264Y-52766498D01*
X97980261Y-52766510D01*
X97949500Y-52921153D01*
X97949500Y-53078846D01*
X97980261Y-53233489D01*
X97980264Y-53233501D01*
X98040602Y-53379172D01*
X98040609Y-53379185D01*
X98128210Y-53510288D01*
X98128213Y-53510292D01*
X98239707Y-53621786D01*
X98239711Y-53621789D01*
X98370814Y-53709390D01*
X98370827Y-53709397D01*
X98516498Y-53769735D01*
X98516503Y-53769737D01*
X98671153Y-53800499D01*
X98671156Y-53800500D01*
X98671158Y-53800500D01*
X98828844Y-53800500D01*
X98828845Y-53800499D01*
X98983497Y-53769737D01*
X99129179Y-53709394D01*
X99260289Y-53621789D01*
X99371789Y-53510289D01*
X99459394Y-53379179D01*
X99519737Y-53233497D01*
X99550500Y-53078842D01*
X99550500Y-52921158D01*
X99550500Y-52921155D01*
X99550499Y-52921153D01*
X99519738Y-52766510D01*
X99519737Y-52766503D01*
X99459394Y-52620821D01*
X99421396Y-52563953D01*
X99400520Y-52497276D01*
X99400500Y-52495064D01*
X99400500Y-50185928D01*
X99375502Y-50060261D01*
X99375501Y-50060260D01*
X99375501Y-50060256D01*
X99326465Y-49941873D01*
X99324480Y-49938902D01*
X99322497Y-49935933D01*
X99255276Y-49835329D01*
X99186819Y-49766872D01*
X99153334Y-49705549D01*
X99150500Y-49679191D01*
X99150500Y-41820807D01*
X99170185Y-41753768D01*
X99186815Y-41733130D01*
X99612808Y-41307136D01*
X99674131Y-41273652D01*
X99719887Y-41272345D01*
X99897648Y-41300500D01*
X99897649Y-41300500D01*
X100102351Y-41300500D01*
X100102352Y-41300500D01*
X100304534Y-41268477D01*
X100499219Y-41205220D01*
X100681610Y-41112287D01*
X100837231Y-40999223D01*
X100847213Y-40991971D01*
X100847215Y-40991968D01*
X100847219Y-40991966D01*
X100991966Y-40847219D01*
X100991968Y-40847215D01*
X100991971Y-40847213D01*
X101080607Y-40725214D01*
X101112287Y-40681610D01*
X101205220Y-40499219D01*
X101268477Y-40304534D01*
X101300500Y-40102352D01*
X101300500Y-39897648D01*
X101287520Y-39815699D01*
X101268477Y-39695465D01*
X101239127Y-39605137D01*
X101205220Y-39500781D01*
X101205218Y-39500778D01*
X101205218Y-39500776D01*
X101147609Y-39387714D01*
X101112287Y-39318390D01*
X101104556Y-39307749D01*
X100991971Y-39152786D01*
X100847213Y-39008028D01*
X100681613Y-38887715D01*
X100681612Y-38887714D01*
X100681610Y-38887713D01*
X100624653Y-38858691D01*
X100499223Y-38794781D01*
X100304534Y-38731522D01*
X100129995Y-38703878D01*
X100102352Y-38699500D01*
X99897648Y-38699500D01*
X99873329Y-38703351D01*
X99695465Y-38731522D01*
X99500776Y-38794781D01*
X99330795Y-38881392D01*
X99262126Y-38894288D01*
X99197385Y-38868012D01*
X99157128Y-38810905D01*
X99150500Y-38770907D01*
X99150500Y-37820807D01*
X99170185Y-37753768D01*
X99186815Y-37733130D01*
X99612808Y-37307136D01*
X99674131Y-37273652D01*
X99719887Y-37272345D01*
X99897648Y-37300500D01*
X99897649Y-37300500D01*
X100102351Y-37300500D01*
X100102352Y-37300500D01*
X100304534Y-37268477D01*
X100499219Y-37205220D01*
X100681610Y-37112287D01*
X100774590Y-37044732D01*
X100847213Y-36991971D01*
X100847215Y-36991968D01*
X100847219Y-36991966D01*
X100991966Y-36847219D01*
X100991968Y-36847215D01*
X100991971Y-36847213D01*
X101075670Y-36732009D01*
X101112287Y-36681610D01*
X101205220Y-36499219D01*
X101268477Y-36304534D01*
X101300500Y-36102352D01*
X101300500Y-35897648D01*
X101284697Y-35797872D01*
X101268477Y-35695465D01*
X101227569Y-35569565D01*
X101205220Y-35500781D01*
X101205218Y-35500778D01*
X101205218Y-35500776D01*
X101171503Y-35434607D01*
X101112287Y-35318390D01*
X101104556Y-35307749D01*
X100991971Y-35152786D01*
X100847213Y-35008028D01*
X100681613Y-34887715D01*
X100681612Y-34887714D01*
X100681610Y-34887713D01*
X100624653Y-34858691D01*
X100499223Y-34794781D01*
X100304534Y-34731522D01*
X100129995Y-34703878D01*
X100102352Y-34699500D01*
X99897648Y-34699500D01*
X99873329Y-34703351D01*
X99695465Y-34731522D01*
X99500776Y-34794781D01*
X99318386Y-34887715D01*
X99152786Y-35008028D01*
X99008028Y-35152786D01*
X98887715Y-35318386D01*
X98794781Y-35500776D01*
X98731522Y-35695465D01*
X98699500Y-35897648D01*
X98699500Y-36102351D01*
X98727654Y-36280111D01*
X98718699Y-36349405D01*
X98692862Y-36387190D01*
X97994726Y-37085326D01*
X97923534Y-37191874D01*
X97874499Y-37310255D01*
X97874497Y-37310261D01*
X97849500Y-37435928D01*
X97849500Y-41130192D01*
X97829815Y-41197231D01*
X97777011Y-41242986D01*
X97707853Y-41252930D01*
X97644297Y-41223905D01*
X97637819Y-41217873D01*
X97307137Y-40887191D01*
X97273652Y-40825868D01*
X97272345Y-40780112D01*
X97287946Y-40681613D01*
X97300500Y-40602352D01*
X97300500Y-40397648D01*
X97268477Y-40195466D01*
X97205220Y-40000781D01*
X97205218Y-40000778D01*
X97205218Y-40000776D01*
X97152671Y-39897648D01*
X97112287Y-39818390D01*
X97093475Y-39792497D01*
X96991971Y-39652786D01*
X96847213Y-39508028D01*
X96681611Y-39387713D01*
X96627621Y-39360203D01*
X96576825Y-39312228D01*
X96560031Y-39244407D01*
X96582569Y-39178272D01*
X96627624Y-39139233D01*
X96681349Y-39111859D01*
X96725921Y-39079474D01*
X96046447Y-38400000D01*
X96052661Y-38400000D01*
X96154394Y-38372741D01*
X96245606Y-38320080D01*
X96320080Y-38245606D01*
X96372741Y-38154394D01*
X96400000Y-38052661D01*
X96400000Y-38046447D01*
X97079474Y-38725921D01*
X97111859Y-38681349D01*
X97204755Y-38499031D01*
X97267990Y-38304417D01*
X97300000Y-38102317D01*
X97300000Y-37897682D01*
X97267990Y-37695582D01*
X97204755Y-37500968D01*
X97111859Y-37318650D01*
X97079474Y-37274077D01*
X97079474Y-37274076D01*
X96400000Y-37953551D01*
X96400000Y-37947339D01*
X96372741Y-37845606D01*
X96320080Y-37754394D01*
X96245606Y-37679920D01*
X96154394Y-37627259D01*
X96052661Y-37600000D01*
X96046446Y-37600000D01*
X96725922Y-36920524D01*
X96725921Y-36920523D01*
X96681359Y-36888147D01*
X96681350Y-36888141D01*
X96499031Y-36795244D01*
X96304417Y-36732009D01*
X96102317Y-36700000D01*
X95897683Y-36700000D01*
X95695582Y-36732009D01*
X95500968Y-36795244D01*
X95318644Y-36888143D01*
X95274077Y-36920523D01*
X95274077Y-36920524D01*
X95953554Y-37600000D01*
X95947339Y-37600000D01*
X95845606Y-37627259D01*
X95754394Y-37679920D01*
X95679920Y-37754394D01*
X95627259Y-37845606D01*
X95600000Y-37947339D01*
X95600000Y-37953553D01*
X94920524Y-37274077D01*
X94920523Y-37274077D01*
X94888143Y-37318644D01*
X94795244Y-37500968D01*
X94732009Y-37695582D01*
X94700000Y-37897682D01*
X94700000Y-38102317D01*
X94732009Y-38304417D01*
X94795244Y-38499031D01*
X94888141Y-38681350D01*
X94888147Y-38681359D01*
X94920523Y-38725921D01*
X94920524Y-38725922D01*
X95600000Y-38046446D01*
X95600000Y-38052661D01*
X95627259Y-38154394D01*
X95679920Y-38245606D01*
X95754394Y-38320080D01*
X95845606Y-38372741D01*
X95947339Y-38400000D01*
X95953553Y-38400000D01*
X95274076Y-39079474D01*
X95318652Y-39111861D01*
X95372376Y-39139234D01*
X95423172Y-39187208D01*
X95439968Y-39255028D01*
X95417431Y-39321164D01*
X95372379Y-39360203D01*
X95318386Y-39387714D01*
X95152786Y-39508028D01*
X95008028Y-39652786D01*
X94887715Y-39818386D01*
X94794781Y-40000776D01*
X94731522Y-40195465D01*
X94699500Y-40397648D01*
X94400500Y-40397648D01*
X94400500Y-31435928D01*
X94375502Y-31310261D01*
X94375501Y-31310260D01*
X94375501Y-31310256D01*
X94326465Y-31191873D01*
X94326464Y-31191872D01*
X94326461Y-31191866D01*
X94255277Y-31085332D01*
X94228069Y-31058124D01*
X94164669Y-30994724D01*
X93583335Y-30413389D01*
X95899500Y-30413389D01*
X95899500Y-31586610D01*
X95925964Y-31753703D01*
X95926598Y-31757701D01*
X95980127Y-31922445D01*
X96058768Y-32076788D01*
X96160586Y-32216928D01*
X96283072Y-32339414D01*
X96423212Y-32441232D01*
X96577555Y-32519873D01*
X96742299Y-32573402D01*
X96913389Y-32600500D01*
X96913390Y-32600500D01*
X97086610Y-32600500D01*
X97086611Y-32600500D01*
X97257701Y-32573402D01*
X97422445Y-32519873D01*
X97576788Y-32441232D01*
X97584088Y-32435928D01*
X104849500Y-32435928D01*
X104849500Y-37944071D01*
X104865869Y-38026358D01*
X104869810Y-38046172D01*
X104871101Y-38052661D01*
X104874499Y-38069743D01*
X104923534Y-38188125D01*
X104994726Y-38294673D01*
X104994727Y-38294674D01*
X106312862Y-39612808D01*
X106346347Y-39674131D01*
X106347654Y-39719886D01*
X106319500Y-39897647D01*
X106319500Y-40102351D01*
X106351522Y-40304534D01*
X106414781Y-40499223D01*
X106507715Y-40681613D01*
X106628028Y-40847213D01*
X106772786Y-40991971D01*
X106927749Y-41104556D01*
X106938390Y-41112287D01*
X107054607Y-41171503D01*
X107120776Y-41205218D01*
X107120778Y-41205218D01*
X107120781Y-41205220D01*
X107225137Y-41239127D01*
X107315465Y-41268477D01*
X107416557Y-41284488D01*
X107517648Y-41300500D01*
X107517649Y-41300500D01*
X107722351Y-41300500D01*
X107722352Y-41300500D01*
X107924534Y-41268477D01*
X108119219Y-41205220D01*
X108301610Y-41112287D01*
X108457231Y-40999223D01*
X108467213Y-40991971D01*
X108467215Y-40991968D01*
X108467219Y-40991966D01*
X108611966Y-40847219D01*
X108611968Y-40847215D01*
X108611971Y-40847213D01*
X108700607Y-40725214D01*
X108732287Y-40681610D01*
X108825220Y-40499219D01*
X108888477Y-40304534D01*
X108920500Y-40102352D01*
X108920500Y-39897648D01*
X108907520Y-39815699D01*
X108888477Y-39695465D01*
X108859127Y-39605137D01*
X108825220Y-39500781D01*
X108825218Y-39500778D01*
X108825218Y-39500776D01*
X108767609Y-39387714D01*
X108732287Y-39318390D01*
X108724556Y-39307749D01*
X108611971Y-39152786D01*
X108467213Y-39008028D01*
X108301613Y-38887715D01*
X108301612Y-38887714D01*
X108301610Y-38887713D01*
X108244653Y-38858691D01*
X108119223Y-38794781D01*
X107924534Y-38731522D01*
X107749995Y-38703878D01*
X107722352Y-38699500D01*
X107517648Y-38699500D01*
X107339886Y-38727654D01*
X107270593Y-38718699D01*
X107232808Y-38692862D01*
X106186819Y-37646873D01*
X106153334Y-37585550D01*
X106150500Y-37559192D01*
X106150500Y-36468753D01*
X106170185Y-36401714D01*
X106222989Y-36355959D01*
X106292147Y-36346015D01*
X106355703Y-36375040D01*
X106392431Y-36430435D01*
X106414781Y-36499221D01*
X106507715Y-36681613D01*
X106628028Y-36847213D01*
X106772786Y-36991971D01*
X106901281Y-37085326D01*
X106938390Y-37112287D01*
X107054607Y-37171503D01*
X107120776Y-37205218D01*
X107120778Y-37205218D01*
X107120781Y-37205220D01*
X107225137Y-37239127D01*
X107315465Y-37268477D01*
X107350822Y-37274077D01*
X107517648Y-37300500D01*
X107517649Y-37300500D01*
X107722351Y-37300500D01*
X107722352Y-37300500D01*
X107924534Y-37268477D01*
X108119219Y-37205220D01*
X108301610Y-37112287D01*
X108394590Y-37044732D01*
X108467213Y-36991971D01*
X108467215Y-36991968D01*
X108467219Y-36991966D01*
X108611966Y-36847219D01*
X108611968Y-36847215D01*
X108611971Y-36847213D01*
X108695670Y-36732009D01*
X108732287Y-36681610D01*
X108825220Y-36499219D01*
X108888477Y-36304534D01*
X108920500Y-36102352D01*
X108920500Y-35897648D01*
X108904697Y-35797872D01*
X108888477Y-35695465D01*
X108847569Y-35569565D01*
X108825220Y-35500781D01*
X108825218Y-35500778D01*
X108825218Y-35500776D01*
X108791503Y-35434607D01*
X108732287Y-35318390D01*
X108724556Y-35307749D01*
X108611971Y-35152786D01*
X108467213Y-35008028D01*
X108301613Y-34887715D01*
X108301612Y-34887714D01*
X108301610Y-34887713D01*
X108244653Y-34858691D01*
X108119223Y-34794781D01*
X107924534Y-34731522D01*
X107749995Y-34703878D01*
X107722352Y-34699500D01*
X107517648Y-34699500D01*
X107493329Y-34703351D01*
X107315465Y-34731522D01*
X107120776Y-34794781D01*
X106938386Y-34887715D01*
X106772786Y-35008028D01*
X106628028Y-35152786D01*
X106507715Y-35318386D01*
X106414781Y-35500776D01*
X106392431Y-35569565D01*
X106352993Y-35627240D01*
X106288634Y-35654438D01*
X106219788Y-35642523D01*
X106168312Y-35595279D01*
X106150500Y-35531246D01*
X106150500Y-32820807D01*
X106170185Y-32753768D01*
X106186815Y-32733130D01*
X106396277Y-32523667D01*
X106457598Y-32490184D01*
X106527289Y-32495168D01*
X106540251Y-32500866D01*
X106577542Y-32519867D01*
X106577547Y-32519869D01*
X106577555Y-32519873D01*
X106742299Y-32573402D01*
X106913389Y-32600500D01*
X106913390Y-32600500D01*
X107086610Y-32600500D01*
X107086611Y-32600500D01*
X107257701Y-32573402D01*
X107422445Y-32519873D01*
X107576788Y-32441232D01*
X107716928Y-32339414D01*
X107839414Y-32216928D01*
X107941232Y-32076788D01*
X108019873Y-31922445D01*
X108073402Y-31757701D01*
X108100500Y-31586611D01*
X108100500Y-30413389D01*
X108073402Y-30242299D01*
X108019873Y-30077555D01*
X107941232Y-29923212D01*
X107839414Y-29783072D01*
X107716928Y-29660586D01*
X107576788Y-29558768D01*
X107506498Y-29522954D01*
X107422447Y-29480128D01*
X107422446Y-29480127D01*
X107422445Y-29480127D01*
X107257701Y-29426598D01*
X107257699Y-29426597D01*
X107257698Y-29426597D01*
X107126271Y-29405781D01*
X107086611Y-29399500D01*
X106913389Y-29399500D01*
X106873728Y-29405781D01*
X106742302Y-29426597D01*
X106742299Y-29426598D01*
X106579713Y-29479426D01*
X106577552Y-29480128D01*
X106423211Y-29558768D01*
X106346625Y-29614412D01*
X106283072Y-29660586D01*
X106283070Y-29660588D01*
X106283069Y-29660588D01*
X106160588Y-29783069D01*
X106160588Y-29783070D01*
X106160586Y-29783072D01*
X106141158Y-29809812D01*
X106058768Y-29923211D01*
X105980128Y-30077552D01*
X105980127Y-30077554D01*
X105980127Y-30077555D01*
X105964874Y-30124499D01*
X105926597Y-30242302D01*
X105899500Y-30413389D01*
X105899500Y-31129192D01*
X105879815Y-31196231D01*
X105863181Y-31216873D01*
X104994722Y-32085331D01*
X104994717Y-32085337D01*
X104967885Y-32125498D01*
X104967883Y-32125501D01*
X104950119Y-32152086D01*
X104923534Y-32191873D01*
X104874499Y-32310255D01*
X104874497Y-32310261D01*
X104849500Y-32435928D01*
X97584088Y-32435928D01*
X97716928Y-32339414D01*
X97839414Y-32216928D01*
X97941232Y-32076788D01*
X98019873Y-31922445D01*
X98073402Y-31757701D01*
X98100500Y-31586611D01*
X98100500Y-30916228D01*
X101149500Y-30916228D01*
X101149500Y-31083771D01*
X101182182Y-31248074D01*
X101182184Y-31248082D01*
X101246295Y-31402860D01*
X101339373Y-31542162D01*
X101457837Y-31660626D01*
X101485637Y-31679201D01*
X101597137Y-31753703D01*
X101751918Y-31817816D01*
X101916228Y-31850499D01*
X101916232Y-31850500D01*
X101916233Y-31850500D01*
X102083768Y-31850500D01*
X102083769Y-31850499D01*
X102248082Y-31817816D01*
X102402863Y-31753703D01*
X102542162Y-31660626D01*
X102660626Y-31542162D01*
X102753703Y-31402863D01*
X102817816Y-31248082D01*
X102850500Y-31083767D01*
X102850500Y-30916233D01*
X102817816Y-30751918D01*
X102753703Y-30597137D01*
X102722537Y-30550494D01*
X102660626Y-30457837D01*
X102542162Y-30339373D01*
X102402860Y-30246295D01*
X102248082Y-30182184D01*
X102248074Y-30182182D01*
X102083771Y-30149500D01*
X102083767Y-30149500D01*
X101916233Y-30149500D01*
X101916228Y-30149500D01*
X101751925Y-30182182D01*
X101751917Y-30182184D01*
X101597139Y-30246295D01*
X101457837Y-30339373D01*
X101339373Y-30457837D01*
X101246295Y-30597139D01*
X101182184Y-30751917D01*
X101182182Y-30751925D01*
X101149500Y-30916228D01*
X98100500Y-30916228D01*
X98100500Y-30413389D01*
X98073402Y-30242299D01*
X98019873Y-30077555D01*
X97941232Y-29923212D01*
X97839414Y-29783072D01*
X97716928Y-29660586D01*
X97576788Y-29558768D01*
X97506498Y-29522954D01*
X97422447Y-29480128D01*
X97422446Y-29480127D01*
X97422445Y-29480127D01*
X97257701Y-29426598D01*
X97257699Y-29426597D01*
X97257698Y-29426597D01*
X97126271Y-29405781D01*
X97086611Y-29399500D01*
X96913389Y-29399500D01*
X96873728Y-29405781D01*
X96742302Y-29426597D01*
X96742299Y-29426598D01*
X96579713Y-29479426D01*
X96577552Y-29480128D01*
X96423211Y-29558768D01*
X96346625Y-29614412D01*
X96283072Y-29660586D01*
X96283070Y-29660588D01*
X96283069Y-29660588D01*
X96160588Y-29783069D01*
X96160588Y-29783070D01*
X96160586Y-29783072D01*
X96141158Y-29809812D01*
X96058768Y-29923211D01*
X95980128Y-30077552D01*
X95980127Y-30077554D01*
X95980127Y-30077555D01*
X95964874Y-30124499D01*
X95926597Y-30242302D01*
X95899500Y-30413389D01*
X93583335Y-30413389D01*
X93414674Y-30244727D01*
X93414673Y-30244726D01*
X93414669Y-30244723D01*
X93308127Y-30173535D01*
X93189744Y-30124499D01*
X93189738Y-30124497D01*
X93064071Y-30099500D01*
X93064069Y-30099500D01*
X93063545Y-30099500D01*
X93063279Y-30099421D01*
X93058009Y-30098903D01*
X93058107Y-30097903D01*
X92996506Y-30079815D01*
X92950751Y-30027011D01*
X92940807Y-29957853D01*
X92969832Y-29894297D01*
X93024541Y-29857794D01*
X93054698Y-29847800D01*
X93169334Y-29809814D01*
X93318656Y-29717712D01*
X93442712Y-29593656D01*
X93534814Y-29444334D01*
X93589999Y-29277797D01*
X93600500Y-29175009D01*
X93600499Y-27824992D01*
X93589999Y-27722203D01*
X93534814Y-27555666D01*
X93442712Y-27406344D01*
X93318656Y-27282288D01*
X93193559Y-27205128D01*
X93169336Y-27190187D01*
X93169331Y-27190185D01*
X93167862Y-27189698D01*
X93002797Y-27135001D01*
X93002795Y-27135000D01*
X92900010Y-27124500D01*
X92099998Y-27124500D01*
X92099980Y-27124501D01*
X91997203Y-27135000D01*
X91997200Y-27135001D01*
X91830668Y-27190185D01*
X91830663Y-27190187D01*
X91681342Y-27282289D01*
X91557287Y-27406344D01*
X91517688Y-27470544D01*
X91465739Y-27517268D01*
X91396777Y-27528489D01*
X91332695Y-27500645D01*
X91324469Y-27493127D01*
X91216930Y-27385588D01*
X91216928Y-27385586D01*
X91076788Y-27283768D01*
X90922445Y-27205127D01*
X90757701Y-27151598D01*
X90757699Y-27151597D01*
X90757698Y-27151597D01*
X90626271Y-27130781D01*
X90586611Y-27124500D01*
X90413389Y-27124500D01*
X90373728Y-27130781D01*
X90242302Y-27151597D01*
X90077552Y-27205128D01*
X89923211Y-27283768D01*
X89843256Y-27341859D01*
X89783072Y-27385586D01*
X89783070Y-27385588D01*
X89783069Y-27385588D01*
X89660588Y-27508069D01*
X89660588Y-27508070D01*
X89660586Y-27508072D01*
X89653905Y-27517268D01*
X89558768Y-27648211D01*
X89480128Y-27802552D01*
X89426597Y-27967302D01*
X89399500Y-28138389D01*
X89399500Y-28861611D01*
X89426598Y-29032701D01*
X89480127Y-29197445D01*
X89558768Y-29351788D01*
X89660586Y-29491928D01*
X89660588Y-29491930D01*
X89783070Y-29614412D01*
X89783076Y-29614417D01*
X89798382Y-29625537D01*
X89841050Y-29680866D01*
X89849500Y-29725857D01*
X89849500Y-30814069D01*
X89849500Y-30814071D01*
X89849499Y-30814071D01*
X89874497Y-30939738D01*
X89874499Y-30939744D01*
X89923533Y-31058124D01*
X89923538Y-31058133D01*
X89955929Y-31106609D01*
X89976807Y-31173287D01*
X89958322Y-31240667D01*
X89906344Y-31287357D01*
X89852827Y-31299500D01*
X89224038Y-31299500D01*
X89099626Y-31319205D01*
X88975214Y-31338910D01*
X88735616Y-31416760D01*
X88511151Y-31531132D01*
X88307350Y-31679201D01*
X88307345Y-31679205D01*
X88129205Y-31857345D01*
X88129201Y-31857350D01*
X87981132Y-32061151D01*
X87866760Y-32285616D01*
X87788910Y-32525214D01*
X87749500Y-32774038D01*
X87500500Y-32774038D01*
X87500500Y-25916228D01*
X96149500Y-25916228D01*
X96149500Y-26083771D01*
X96182182Y-26248074D01*
X96182184Y-26248082D01*
X96246295Y-26402860D01*
X96339373Y-26542162D01*
X96457837Y-26660626D01*
X96541612Y-26716602D01*
X96597137Y-26753703D01*
X96751918Y-26817816D01*
X96916228Y-26850499D01*
X96916232Y-26850500D01*
X96916233Y-26850500D01*
X97083768Y-26850500D01*
X97083769Y-26850499D01*
X97248082Y-26817816D01*
X97402863Y-26753703D01*
X97542162Y-26660626D01*
X97660626Y-26542162D01*
X97753703Y-26402863D01*
X97817022Y-26250000D01*
X100425885Y-26250000D01*
X100427085Y-26257584D01*
X100480591Y-26422255D01*
X100559195Y-26576524D01*
X100660967Y-26716602D01*
X100783397Y-26839032D01*
X100923475Y-26940804D01*
X101077742Y-27019408D01*
X101242415Y-27072914D01*
X101413429Y-27100000D01*
X101750000Y-27100000D01*
X102250000Y-27100000D01*
X102586571Y-27100000D01*
X102757584Y-27072914D01*
X102922257Y-27019408D01*
X103076524Y-26940804D01*
X103216602Y-26839032D01*
X103339032Y-26716602D01*
X103440804Y-26576524D01*
X103519408Y-26422255D01*
X103572914Y-26257584D01*
X103574115Y-26250000D01*
X102250000Y-26250000D01*
X102250000Y-27100000D01*
X101750000Y-27100000D01*
X101750000Y-26250000D01*
X100425885Y-26250000D01*
X97817022Y-26250000D01*
X97817816Y-26248082D01*
X97850500Y-26083767D01*
X97850500Y-25960218D01*
X101300000Y-25960218D01*
X101300000Y-26039782D01*
X101330448Y-26113291D01*
X101386709Y-26169552D01*
X101460218Y-26200000D01*
X102539782Y-26200000D01*
X102613291Y-26169552D01*
X102669552Y-26113291D01*
X102700000Y-26039782D01*
X102700000Y-25960218D01*
X102681779Y-25916228D01*
X106149500Y-25916228D01*
X106149500Y-26083771D01*
X106182182Y-26248074D01*
X106182184Y-26248082D01*
X106246295Y-26402860D01*
X106339373Y-26542162D01*
X106457837Y-26660626D01*
X106541612Y-26716602D01*
X106597137Y-26753703D01*
X106751918Y-26817816D01*
X106916228Y-26850499D01*
X106916232Y-26850500D01*
X106916233Y-26850500D01*
X107083768Y-26850500D01*
X107083769Y-26850499D01*
X107248082Y-26817816D01*
X107402863Y-26753703D01*
X107542162Y-26660626D01*
X107660626Y-26542162D01*
X107753703Y-26402863D01*
X107817816Y-26248082D01*
X107850500Y-26083767D01*
X107850500Y-25916233D01*
X107817816Y-25751918D01*
X107753703Y-25597137D01*
X107722537Y-25550494D01*
X107660626Y-25457837D01*
X107542162Y-25339373D01*
X107402860Y-25246295D01*
X107248082Y-25182184D01*
X107248074Y-25182182D01*
X107083771Y-25149500D01*
X107083767Y-25149500D01*
X106916233Y-25149500D01*
X106916228Y-25149500D01*
X106751925Y-25182182D01*
X106751917Y-25182184D01*
X106597139Y-25246295D01*
X106457837Y-25339373D01*
X106339373Y-25457837D01*
X106246295Y-25597139D01*
X106182184Y-25751917D01*
X106182182Y-25751925D01*
X106149500Y-25916228D01*
X102681779Y-25916228D01*
X102669552Y-25886709D01*
X102613291Y-25830448D01*
X102539782Y-25800000D01*
X101460218Y-25800000D01*
X101386709Y-25830448D01*
X101330448Y-25886709D01*
X101300000Y-25960218D01*
X97850500Y-25960218D01*
X97850500Y-25916233D01*
X97817816Y-25751918D01*
X97817021Y-25749999D01*
X100425884Y-25749999D01*
X100425885Y-25750000D01*
X101750000Y-25750000D01*
X102250000Y-25750000D01*
X103574115Y-25750000D01*
X103574115Y-25749999D01*
X103572914Y-25742415D01*
X103519408Y-25577744D01*
X103440804Y-25423475D01*
X103339032Y-25283397D01*
X103216602Y-25160967D01*
X103076524Y-25059195D01*
X102922257Y-24980591D01*
X102757584Y-24927085D01*
X102586571Y-24900000D01*
X102250000Y-24900000D01*
X102250000Y-25750000D01*
X101750000Y-25750000D01*
X101750000Y-24900000D01*
X101413429Y-24900000D01*
X101242415Y-24927085D01*
X101077742Y-24980591D01*
X100923475Y-25059195D01*
X100783397Y-25160967D01*
X100660967Y-25283397D01*
X100559195Y-25423475D01*
X100480591Y-25577744D01*
X100427085Y-25742415D01*
X100425884Y-25749999D01*
X97817021Y-25749999D01*
X97753703Y-25597137D01*
X97722537Y-25550494D01*
X97660626Y-25457837D01*
X97542162Y-25339373D01*
X97402860Y-25246295D01*
X97248082Y-25182184D01*
X97248074Y-25182182D01*
X97083771Y-25149500D01*
X97083767Y-25149500D01*
X96916233Y-25149500D01*
X96916228Y-25149500D01*
X96751925Y-25182182D01*
X96751917Y-25182184D01*
X96597139Y-25246295D01*
X96457837Y-25339373D01*
X96339373Y-25457837D01*
X96246295Y-25597139D01*
X96182184Y-25751917D01*
X96182182Y-25751925D01*
X96149500Y-25916228D01*
X87500500Y-25916228D01*
X87500500Y-23416228D01*
X96149500Y-23416228D01*
X96149500Y-23583771D01*
X96182182Y-23748074D01*
X96182184Y-23748082D01*
X96246295Y-23902860D01*
X96339373Y-24042162D01*
X96457837Y-24160626D01*
X96550494Y-24222537D01*
X96597137Y-24253703D01*
X96751918Y-24317816D01*
X96916228Y-24350499D01*
X96916232Y-24350500D01*
X96916233Y-24350500D01*
X97083768Y-24350500D01*
X97083769Y-24350499D01*
X97248082Y-24317816D01*
X97402863Y-24253703D01*
X97542162Y-24160626D01*
X97660626Y-24042162D01*
X97753703Y-23902863D01*
X97817816Y-23748082D01*
X97850500Y-23583767D01*
X97850500Y-23416233D01*
X97850499Y-23416228D01*
X106149500Y-23416228D01*
X106149500Y-23583771D01*
X106182182Y-23748074D01*
X106182184Y-23748082D01*
X106246295Y-23902860D01*
X106339373Y-24042162D01*
X106457837Y-24160626D01*
X106550494Y-24222537D01*
X106597137Y-24253703D01*
X106751918Y-24317816D01*
X106916228Y-24350499D01*
X106916232Y-24350500D01*
X106916233Y-24350500D01*
X107083768Y-24350500D01*
X107083769Y-24350499D01*
X107248082Y-24317816D01*
X107402863Y-24253703D01*
X107542162Y-24160626D01*
X107660626Y-24042162D01*
X107753703Y-23902863D01*
X107817816Y-23748082D01*
X107850500Y-23583767D01*
X107850500Y-23416233D01*
X107817816Y-23251918D01*
X107753703Y-23097137D01*
X107722537Y-23050494D01*
X107660626Y-22957837D01*
X107542162Y-22839373D01*
X107402860Y-22746295D01*
X107248082Y-22682184D01*
X107248074Y-22682182D01*
X107083771Y-22649500D01*
X107083767Y-22649500D01*
X106916233Y-22649500D01*
X106916228Y-22649500D01*
X106751925Y-22682182D01*
X106751917Y-22682184D01*
X106597139Y-22746295D01*
X106457837Y-22839373D01*
X106339373Y-22957837D01*
X106246295Y-23097139D01*
X106182184Y-23251917D01*
X106182182Y-23251925D01*
X106149500Y-23416228D01*
X97850499Y-23416228D01*
X97817816Y-23251918D01*
X97753703Y-23097137D01*
X97722537Y-23050494D01*
X97660626Y-22957837D01*
X97542162Y-22839373D01*
X97402860Y-22746295D01*
X97248082Y-22682184D01*
X97248074Y-22682182D01*
X97083771Y-22649500D01*
X97083767Y-22649500D01*
X96916233Y-22649500D01*
X96916228Y-22649500D01*
X96751925Y-22682182D01*
X96751917Y-22682184D01*
X96597139Y-22746295D01*
X96457837Y-22839373D01*
X96339373Y-22957837D01*
X96246295Y-23097139D01*
X96182184Y-23251917D01*
X96182182Y-23251925D01*
X96149500Y-23416228D01*
X87500500Y-23416228D01*
X87500500Y-22124500D01*
X87520185Y-22057461D01*
X87572989Y-22011706D01*
X87624500Y-22000500D01*
X95434108Y-22000500D01*
X99175500Y-22000500D01*
X99242539Y-22020185D01*
G37*
%TD.AperFunction*%
%TD*%
M02*
