%TF.GenerationSoftware,KiCad,Pcbnew,9.0.7*%
%TF.CreationDate,2026-01-16T10:51:50-07:00*%
%TF.ProjectId,keylink_revB,6b65796c-696e-46b5-9f72-6576422e6b69,rev?*%
%TF.SameCoordinates,Original*%
%TF.FileFunction,Legend,Top*%
%TF.FilePolarity,Positive*%
%FSLAX46Y46*%
G04 Gerber Fmt 4.6, Leading zero omitted, Abs format (unit mm)*
G04 Created by KiCad (PCBNEW 9.0.7) date 2026-01-16 10:51:50*
%MOMM*%
%LPD*%
G01*
G04 APERTURE LIST*
%ADD10C,0.150000*%
%ADD11C,0.120000*%
G04 APERTURE END LIST*
D10*
X94007200Y-37733332D02*
X94054819Y-37590475D01*
X94054819Y-37590475D02*
X94054819Y-37352380D01*
X94054819Y-37352380D02*
X94007200Y-37257142D01*
X94007200Y-37257142D02*
X93959580Y-37209523D01*
X93959580Y-37209523D02*
X93864342Y-37161904D01*
X93864342Y-37161904D02*
X93769104Y-37161904D01*
X93769104Y-37161904D02*
X93673866Y-37209523D01*
X93673866Y-37209523D02*
X93626247Y-37257142D01*
X93626247Y-37257142D02*
X93578628Y-37352380D01*
X93578628Y-37352380D02*
X93531009Y-37542856D01*
X93531009Y-37542856D02*
X93483390Y-37638094D01*
X93483390Y-37638094D02*
X93435771Y-37685713D01*
X93435771Y-37685713D02*
X93340533Y-37733332D01*
X93340533Y-37733332D02*
X93245295Y-37733332D01*
X93245295Y-37733332D02*
X93150057Y-37685713D01*
X93150057Y-37685713D02*
X93102438Y-37638094D01*
X93102438Y-37638094D02*
X93054819Y-37542856D01*
X93054819Y-37542856D02*
X93054819Y-37304761D01*
X93054819Y-37304761D02*
X93102438Y-37161904D01*
X93054819Y-36828570D02*
X94054819Y-36590475D01*
X94054819Y-36590475D02*
X93340533Y-36399999D01*
X93340533Y-36399999D02*
X94054819Y-36209523D01*
X94054819Y-36209523D02*
X93054819Y-35971428D01*
X94054819Y-35066666D02*
X94054819Y-35638094D01*
X94054819Y-35352380D02*
X93054819Y-35352380D01*
X93054819Y-35352380D02*
X93197676Y-35447618D01*
X93197676Y-35447618D02*
X93292914Y-35542856D01*
X93292914Y-35542856D02*
X93340533Y-35638094D01*
X91166666Y-30504819D02*
X91166666Y-31219104D01*
X91166666Y-31219104D02*
X91119047Y-31361961D01*
X91119047Y-31361961D02*
X91023809Y-31457200D01*
X91023809Y-31457200D02*
X90880952Y-31504819D01*
X90880952Y-31504819D02*
X90785714Y-31504819D01*
X92166666Y-31504819D02*
X91595238Y-31504819D01*
X91880952Y-31504819D02*
X91880952Y-30504819D01*
X91880952Y-30504819D02*
X91785714Y-30647676D01*
X91785714Y-30647676D02*
X91690476Y-30742914D01*
X91690476Y-30742914D02*
X91595238Y-30790533D01*
X98261904Y-51545180D02*
X98261904Y-50735657D01*
X98261904Y-50735657D02*
X98214285Y-50640419D01*
X98214285Y-50640419D02*
X98166666Y-50592800D01*
X98166666Y-50592800D02*
X98071428Y-50545180D01*
X98071428Y-50545180D02*
X97880952Y-50545180D01*
X97880952Y-50545180D02*
X97785714Y-50592800D01*
X97785714Y-50592800D02*
X97738095Y-50640419D01*
X97738095Y-50640419D02*
X97690476Y-50735657D01*
X97690476Y-50735657D02*
X97690476Y-51545180D01*
X96690476Y-50545180D02*
X97261904Y-50545180D01*
X96976190Y-50545180D02*
X96976190Y-51545180D01*
X96976190Y-51545180D02*
X97071428Y-51402323D01*
X97071428Y-51402323D02*
X97166666Y-51307085D01*
X97166666Y-51307085D02*
X97261904Y-51259466D01*
D11*
%TO.C,R1*%
X100540000Y-34630000D02*
X100540000Y-34960000D01*
X100540000Y-37370000D02*
X100540000Y-37040000D01*
X107080000Y-34630000D02*
X100540000Y-34630000D01*
X107080000Y-34960000D02*
X107080000Y-34630000D01*
X107080000Y-37040000D02*
X107080000Y-37370000D01*
X107080000Y-37370000D02*
X100540000Y-37370000D01*
%TO.C,SW1*%
X92300000Y-32700000D02*
X92300000Y-41300000D01*
X87700000Y-32700000D02*
X87700000Y-34900000D01*
X87700000Y-39000000D02*
X87700000Y-41300000D01*
%TO.C,R2*%
X107080000Y-41370000D02*
X100540000Y-41370000D01*
X107080000Y-41040000D02*
X107080000Y-41370000D01*
X107080000Y-38960000D02*
X107080000Y-38630000D01*
X107080000Y-38630000D02*
X100540000Y-38630000D01*
X100540000Y-41370000D02*
X100540000Y-41040000D01*
X100540000Y-38630000D02*
X100540000Y-38960000D01*
%TO.C,J1*%
X90200000Y-26000000D02*
X89200000Y-26000000D01*
X89200000Y-24400000D01*
X90200000Y-24400000D01*
X90200000Y-26000000D01*
X93800000Y-26000000D02*
X92800000Y-26000000D01*
X92800000Y-24400000D01*
X93800000Y-24400000D01*
X93800000Y-26000000D01*
X88440000Y-22140000D02*
X88440000Y-29960000D01*
X88440000Y-28360000D02*
X89360000Y-28360000D01*
X88440000Y-29960000D02*
X89360000Y-29960000D01*
X89360000Y-28360000D02*
X89640000Y-28360000D01*
X89360000Y-29960000D02*
X89360000Y-28360000D01*
X91000000Y-26500000D02*
X91000000Y-22140000D01*
X92000000Y-22140000D02*
X92000000Y-26500000D01*
X92000000Y-26500000D02*
X91000000Y-26500000D01*
X92800000Y-24400000D02*
X92800000Y-22140000D01*
X93300000Y-24400000D02*
X93300000Y-22140000D01*
X93360000Y-28360000D02*
X93360000Y-29575000D01*
X93360000Y-28360000D02*
X93640000Y-28360000D01*
X93640000Y-28360000D02*
X93640000Y-29960000D01*
X93640000Y-29960000D02*
X94560000Y-29960000D01*
X94560000Y-22140000D02*
X88440000Y-22140000D01*
X94560000Y-28360000D02*
X93640000Y-28360000D01*
X94560000Y-29960000D02*
X94560000Y-22140000D01*
%TO.C,C1*%
X96920000Y-38485000D02*
X96920000Y-40015000D01*
X95080000Y-40015000D02*
X95080000Y-38485000D01*
%TO.C,J2*%
X108000000Y-33700000D02*
X96000000Y-33700000D01*
X108000000Y-22700000D02*
X108000000Y-33700000D01*
X106500000Y-22700000D02*
X108000000Y-22700000D01*
X106500000Y-21500000D02*
X106500000Y-22700000D01*
X105000000Y-21500000D02*
X106500000Y-21500000D01*
X105000000Y-19700000D02*
X105000000Y-21500000D01*
X104000000Y-22700000D02*
X104000000Y-19700000D01*
X100000000Y-22700000D02*
X104000000Y-22700000D01*
X100000000Y-19700000D02*
X100000000Y-22700000D01*
X99000000Y-21500000D02*
X99000000Y-19700000D01*
X99000000Y-19700000D02*
X105000000Y-19700000D01*
X97500000Y-22700000D02*
X97500000Y-21500000D01*
X97500000Y-21500000D02*
X99000000Y-21500000D01*
X96000000Y-33700000D02*
X96000000Y-22700000D01*
X96000000Y-22700000D02*
X97500000Y-22700000D01*
%TO.C,U1*%
X91000000Y-43920000D02*
X91000000Y-43350000D01*
X91000000Y-46460000D02*
X91000000Y-45440000D01*
X91000000Y-49000000D02*
X91000000Y-47980000D01*
X91000000Y-51540000D02*
X91000000Y-50520000D01*
X91000000Y-54080000D02*
X91000000Y-53060000D01*
X91000000Y-56620000D02*
X91000000Y-55600000D01*
X91000000Y-59160000D02*
X91000000Y-58140000D01*
X91000000Y-61250000D02*
X91000000Y-60680000D01*
X106175000Y-43350000D02*
X91000000Y-43350000D01*
X106175000Y-43920000D02*
X106175000Y-43350000D01*
X106175000Y-46460000D02*
X106175000Y-45440000D01*
X106175000Y-49000000D02*
X106175000Y-47980000D01*
X106175000Y-51540000D02*
X106175000Y-50520000D01*
X106175000Y-54080000D02*
X106175000Y-53060000D01*
X106175000Y-56620000D02*
X106175000Y-55600000D01*
X106175000Y-59160000D02*
X106175000Y-58140000D01*
X106175000Y-61250000D02*
X91000000Y-61250000D01*
X106175000Y-61250000D02*
X106175000Y-60680000D01*
X107615000Y-60680000D02*
X106175000Y-60680000D01*
%TD*%
M02*
